<svg xmlns="http://www.w3.org/2000/svg" width="1200" height="675" viewBox="0 0 1200 675" direction="rtl">
  <defs>
    <linearGradient id="g" x1="0" y1="0" x2="1" y2="1">
      <stop offset="0" stop-color="#0b7fab"/>
      <stop offset="0.55" stop-color="#1f4e79"/>
      <stop offset="1" stop-color="#5b2a67"/>
    </linearGradient>
    <filter id="shadow" x="-20%" y="-20%" width="140%" height="140%"><feDropShadow dx="0" dy="12" stdDeviation="18" flood-color="#000" flood-opacity=".25"/></filter>
  </defs>
  <rect width="1200" height="675" fill="url(#g)"/>
  <circle cx="170" cy="120" r="130" fill="#ffffff" opacity=".08"/>
  <circle cx="1020" cy="610" r="210" fill="#ffffff" opacity=".08"/>
  <g filter="url(#shadow)">
    <rect x="120" y="110" width="960" height="455" rx="36" fill="#ffffff" opacity=".96"/>
    <text x="600" y="190" text-anchor="middle" font-family="Tahoma,Arial" font-size="50" font-weight="700" fill="#0f172a">الصف السادس</text>
    <text x="600" y="260" text-anchor="middle" font-family="Tahoma,Arial" font-size="62" font-weight="800" fill="#0b7fab">الوحدة السابعة: الهندسة</text>
    <text x="600" y="325" text-anchor="middle" font-family="Tahoma,Arial" font-size="34" fill="#475569">أوراق عمل محوسبة وتفاعلية</text>
    <g transform="translate(205 380)" stroke-width="8" fill="none" stroke-linecap="round" stroke-linejoin="round">
      <rect x="0" y="10" width="120" height="90" stroke="#1f4e79"/>
      <polygon points="210,100 350,100 310,10 170,10" stroke="#5b2a67"/>
      <line x1="195" y1="10" x2="195" y2="100" stroke="#ef4444" stroke-dasharray="12 10"/>
      <polygon points="455,100 575,100 520,12" stroke="#0b7fab"/>
      <circle cx="735" cy="55" r="55" stroke="#f59e0b"/>
      <line x1="735" y1="55" x2="790" y2="55" stroke="#f59e0b"/>
    </g>
  </g>
</svg>