<svg xmlns="http://www.w3.org/2000/svg" width="900" height="900" viewBox="0 0 900 900" role="img" aria-label="حافلة المدرسة">
  <defs>
    <linearGradient id="g" x1="0" y1="0" x2="1" y2="1">
      <stop offset="0%" stop-color="#0b1220"/>
      <stop offset="100%" stop-color="#0f766e"/>
    </linearGradient>
    <radialGradient id="glow" cx="20%" cy="20%" r="80%">
      <stop offset="0%" stop-color="rgba(255,255,255,0.28)"/>
      <stop offset="100%" stop-color="rgba(255,255,255,0)"/>
    </radialGradient>
    <filter id="shadow" x="-20%" y="-20%" width="140%" height="140%">
      <feDropShadow dx="0" dy="12" stdDeviation="18" flood-color="rgba(0,0,0,0.35)"/>
    </filter>
  </defs>
  <rect width="900" height="900" rx="56" fill="url(#g)"/>
  <circle cx="160" cy="150" r="120" fill="rgba(255,255,255,0.08)"/>
  <circle cx="760" cy="120" r="90" fill="rgba(255,255,255,0.07)"/>
  <rect x="58" y="56" width="784" height="788" rx="42" fill="rgba(8,17,33,0.46)" stroke="rgba(255,255,255,0.12)"/>
  <rect x="88" y="84" width="240" height="54" rx="27" fill="#f59e0b" opacity="0.95"/>
  <text x="208" y="119" font-size="28" font-family="Arial, Tahoma, sans-serif" text-anchor="middle" fill="#0b1220" font-weight="700">اليوم الأول واليوم الثاني</text>
  <text x="450" y="192" font-size="58" font-family="Arial, Tahoma, sans-serif" text-anchor="middle" fill="#ffffff" font-weight="900">حافلة المدرسة</text>
  <g filter="url(#shadow)">
    
  <rect x="170" y="360" width="560" height="220" rx="42" fill="#f59e0b" stroke="#fde68a" stroke-width="8"/>
  <rect x="214" y="408" width="116" height="80" rx="16" fill="#dbeafe"/>
  <rect x="352" y="408" width="116" height="80" rx="16" fill="#dbeafe"/>
  <rect x="490" y="408" width="116" height="80" rx="16" fill="#dbeafe"/>
  <circle cx="300" cy="612" r="46" fill="#111827"/>
  <circle cx="600" cy="612" r="46" fill="#111827"/>
  <rect x="250" y="248" width="400" height="70" rx="22" fill="rgba(255,255,255,0.10)" stroke="rgba(255,255,255,0.16)"/>
  <text x="450" y="293" font-size="36" font-family="Arial, Tahoma, sans-serif" text-anchor="middle" fill="#ffffff" font-weight="700">حافلة اليوم الأول — حافلة اليوم الثاني</text>

  </g>
  <text x="450" y="810" font-size="34" font-family="Arial, Tahoma, sans-serif" text-anchor="middle" fill="rgba(255,255,255,0.88)" font-weight="700">مختبر تطبيقات الرياضيات — الفضاء العيني</text>
</svg>