<svg xmlns="http://www.w3.org/2000/svg" width="900" height="900" viewBox="0 0 900 900" role="img" aria-label="مغامرة Ω">
  <defs>
    <linearGradient id="g" x1="0" y1="0" x2="1" y2="1">
      <stop offset="0%" stop-color="#0b1220"/>
      <stop offset="100%" stop-color="#1d4ed8"/>
    </linearGradient>
    <radialGradient id="glow" cx="20%" cy="20%" r="80%">
      <stop offset="0%" stop-color="rgba(255,255,255,0.28)"/>
      <stop offset="100%" stop-color="rgba(255,255,255,0)"/>
    </radialGradient>
    <filter id="shadow" x="-20%" y="-20%" width="140%" height="140%">
      <feDropShadow dx="0" dy="12" stdDeviation="18" flood-color="rgba(0,0,0,0.35)"/>
    </filter>
  </defs>
  <rect width="900" height="900" rx="56" fill="url(#g)"/>
  <circle cx="160" cy="150" r="120" fill="rgba(255,255,255,0.08)"/>
  <circle cx="760" cy="120" r="90" fill="rgba(255,255,255,0.07)"/>
  <rect x="58" y="56" width="784" height="788" rx="42" fill="rgba(8,17,33,0.46)" stroke="rgba(255,255,255,0.12)"/>
  <rect x="88" y="84" width="240" height="54" rx="27" fill="#f59e0b" opacity="0.95"/>
  <text x="208" y="119" font-size="28" font-family="Arial, Tahoma, sans-serif" text-anchor="middle" fill="#0b1220" font-weight="700">لعبة الفضاء العيني</text>
  <text x="450" y="192" font-size="58" font-family="Arial, Tahoma, sans-serif" text-anchor="middle" fill="#ffffff" font-weight="900">مغامرة Ω</text>
  <g filter="url(#shadow)">
    
  <rect x="170" y="270" width="560" height="350" rx="34" fill="rgba(11,18,32,0.72)" stroke="rgba(255,255,255,0.18)"/>
  <circle cx="290" cy="450" r="96" fill="#f59e0b"/>
  <text x="290" y="474" font-size="86" font-family="Arial, Tahoma, sans-serif" text-anchor="middle" fill="#111827" font-weight="900">Ω</text>
  <rect x="430" y="332" width="228" height="58" rx="18" fill="#172036" stroke="#334155"/>
  <text x="544" y="370" font-size="30" font-family="Arial, Tahoma, sans-serif" text-anchor="middle" fill="#e2e8f0" font-weight="700">{أحمر، أزرق، أخضر}</text>
  <rect x="430" y="420" width="228" height="58" rx="18" fill="#172036" stroke="#334155"/>
  <text x="544" y="458" font-size="30" font-family="Arial, Tahoma, sans-serif" text-anchor="middle" fill="#e2e8f0" font-weight="700">{(خ، خ)، (خ، ح)}</text>
  <rect x="430" y="508" width="228" height="58" rx="18" fill="#172036" stroke="#334155"/>
  <text x="544" y="546" font-size="30" font-family="Arial, Tahoma, sans-serif" text-anchor="middle" fill="#e2e8f0" font-weight="700">{(سيف، ذهبي)}</text>
  <circle cx="700" cy="640" r="48" fill="#10b981"/>
  <text x="700" y="656" font-size="50" font-family="Arial, Tahoma, sans-serif" text-anchor="middle" fill="#081219" font-weight="900">✓</text>

  </g>
  <text x="450" y="810" font-size="34" font-family="Arial, Tahoma, sans-serif" text-anchor="middle" fill="rgba(255,255,255,0.88)" font-weight="700">مختبر تطبيقات الرياضيات — الفضاء العيني</text>
</svg>