<svg xmlns="http://www.w3.org/2000/svg" width="900" height="900" viewBox="0 0 900 900" role="img" aria-label="طقس الصباح والمساء">
  <defs>
    <linearGradient id="g" x1="0" y1="0" x2="1" y2="1">
      <stop offset="0%" stop-color="#0f172a"/>
      <stop offset="100%" stop-color="#0284c7"/>
    </linearGradient>
    <radialGradient id="glow" cx="20%" cy="20%" r="80%">
      <stop offset="0%" stop-color="rgba(255,255,255,0.28)"/>
      <stop offset="100%" stop-color="rgba(255,255,255,0)"/>
    </radialGradient>
    <filter id="shadow" x="-20%" y="-20%" width="140%" height="140%">
      <feDropShadow dx="0" dy="12" stdDeviation="18" flood-color="rgba(0,0,0,0.35)"/>
    </filter>
  </defs>
  <rect width="900" height="900" rx="56" fill="url(#g)"/>
  <circle cx="160" cy="150" r="120" fill="rgba(255,255,255,0.08)"/>
  <circle cx="760" cy="120" r="90" fill="rgba(255,255,255,0.07)"/>
  <rect x="58" y="56" width="784" height="788" rx="42" fill="rgba(8,17,33,0.46)" stroke="rgba(255,255,255,0.12)"/>
  <rect x="88" y="84" width="240" height="54" rx="27" fill="#fbbf24" opacity="0.95"/>
  <text x="208" y="119" font-size="28" font-family="Arial, Tahoma, sans-serif" text-anchor="middle" fill="#0b1220" font-weight="700">الأزواج المرتبة</text>
  <text x="450" y="192" font-size="58" font-family="Arial, Tahoma, sans-serif" text-anchor="middle" fill="#ffffff" font-weight="900">طقس الصباح والمساء</text>
  <g filter="url(#shadow)">
    
  <circle cx="325" cy="385" r="88" fill="#fbbf24"/>
  <g fill="#f8fafc">
    <circle cx="520" cy="395" r="72"/>
    <circle cx="585" cy="425" r="60"/>
    <circle cx="450" cy="430" r="56"/>
    <rect x="420" y="430" width="210" height="74" rx="34"/>
  </g>
  <g stroke="#f8fafc" stroke-width="10" stroke-linecap="round">
    <line x1="325" y1="240" x2="325" y2="190"/>
    <line x1="325" y1="530" x2="325" y2="580"/>
    <line x1="180" y1="385" x2="130" y2="385"/>
    <line x1="470" y1="385" x2="520" y2="385"/>
    <line x1="216" y1="276" x2="178" y2="238"/>
    <line x1="434" y1="494" x2="470" y2="530"/>
  </g>
  <rect x="196" y="688" width="508" height="74" rx="20" fill="rgba(255,255,255,0.10)" stroke="rgba(255,255,255,0.16)"/>
  <text x="450" y="736" font-size="34" font-family="Arial, Tahoma, sans-serif" text-anchor="middle" fill="#ffffff" font-weight="700">صباحًا ومساءً: الترتيب مهم</text>

  </g>
  <text x="450" y="810" font-size="34" font-family="Arial, Tahoma, sans-serif" text-anchor="middle" fill="rgba(255,255,255,0.88)" font-weight="700">مختبر تطبيقات الرياضيات — الفضاء العيني</text>
</svg>